<mxfile host="app.diagrams.net" agent="Mozilla/5.0 (Windows NT 10.0; Win64; x64) AppleWebKit/537.36 (KHTML, like Gecko) Chrome/128.0.0.0 Safari/537.36 OPR/114.0.0.0" version="25.0.3" pages="3">
  <diagram name="1-100" id="G-peeFyipc1ydWO5PFX4">
    <mxGraphModel dx="1393" dy="763" grid="1" gridSize="10" guides="1" tooltips="1" connect="1" arrows="1" fold="1" page="1" pageScale="1" pageWidth="827" pageHeight="1169" math="0" shadow="0">
      <root>
        <mxCell id="0" />
        <mxCell id="1" parent="0" />
        <mxCell id="07zgNsDlDqZC1YtUXzM1-1" value="INICIO" style="strokeWidth=2;html=1;shape=mxgraph.flowchart.start_1;whiteSpace=wrap;" vertex="1" parent="1">
          <mxGeometry x="364" y="20" width="100" height="60" as="geometry" />
        </mxCell>
        <mxCell id="07zgNsDlDqZC1YtUXzM1-2" value="FIM" style="strokeWidth=2;html=1;shape=mxgraph.flowchart.start_1;whiteSpace=wrap;" vertex="1" parent="1">
          <mxGeometry x="364" y="710" width="100" height="60" as="geometry" />
        </mxCell>
        <mxCell id="07zgNsDlDqZC1YtUXzM1-6" style="edgeStyle=orthogonalEdgeStyle;rounded=0;orthogonalLoop=1;jettySize=auto;html=1;entryX=0.5;entryY=0;entryDx=0;entryDy=0;" edge="1" parent="1" source="07zgNsDlDqZC1YtUXzM1-3" target="07zgNsDlDqZC1YtUXzM1-5">
          <mxGeometry relative="1" as="geometry" />
        </mxCell>
        <mxCell id="07zgNsDlDqZC1YtUXzM1-3" value="NUM" style="html=1;strokeWidth=2;shape=manualInput;whiteSpace=wrap;rounded=1;size=26;arcSize=11;" vertex="1" parent="1">
          <mxGeometry x="364" y="110" width="100" height="60" as="geometry" />
        </mxCell>
        <mxCell id="07zgNsDlDqZC1YtUXzM1-4" style="edgeStyle=orthogonalEdgeStyle;rounded=0;orthogonalLoop=1;jettySize=auto;html=1;entryX=0.5;entryY=0.167;entryDx=0;entryDy=0;entryPerimeter=0;" edge="1" parent="1" source="07zgNsDlDqZC1YtUXzM1-1" target="07zgNsDlDqZC1YtUXzM1-3">
          <mxGeometry relative="1" as="geometry" />
        </mxCell>
        <mxCell id="07zgNsDlDqZC1YtUXzM1-5" value="CONTADOR = 1" style="rounded=1;whiteSpace=wrap;html=1;absoluteArcSize=1;arcSize=14;strokeWidth=2;" vertex="1" parent="1">
          <mxGeometry x="342" y="220" width="144" height="40" as="geometry" />
        </mxCell>
        <mxCell id="07zgNsDlDqZC1YtUXzM1-15" style="edgeStyle=orthogonalEdgeStyle;rounded=0;orthogonalLoop=1;jettySize=auto;html=1;entryX=0.5;entryY=0;entryDx=0;entryDy=0;" edge="1" parent="1" source="07zgNsDlDqZC1YtUXzM1-7" target="07zgNsDlDqZC1YtUXzM1-11">
          <mxGeometry relative="1" as="geometry" />
        </mxCell>
        <mxCell id="07zgNsDlDqZC1YtUXzM1-16" value="V" style="edgeLabel;html=1;align=center;verticalAlign=middle;resizable=0;points=[];" vertex="1" connectable="0" parent="07zgNsDlDqZC1YtUXzM1-15">
          <mxGeometry x="-0.2" y="-3" relative="1" as="geometry">
            <mxPoint as="offset" />
          </mxGeometry>
        </mxCell>
        <mxCell id="07zgNsDlDqZC1YtUXzM1-7" value="CONTADOR &amp;lt;= 100" style="strokeWidth=2;html=1;shape=mxgraph.flowchart.decision;whiteSpace=wrap;" vertex="1" parent="1">
          <mxGeometry x="354" y="310" width="120" height="80" as="geometry" />
        </mxCell>
        <mxCell id="07zgNsDlDqZC1YtUXzM1-8" style="edgeStyle=orthogonalEdgeStyle;rounded=0;orthogonalLoop=1;jettySize=auto;html=1;entryX=0.5;entryY=0;entryDx=0;entryDy=0;entryPerimeter=0;" edge="1" parent="1" source="07zgNsDlDqZC1YtUXzM1-5" target="07zgNsDlDqZC1YtUXzM1-7">
          <mxGeometry relative="1" as="geometry" />
        </mxCell>
        <mxCell id="07zgNsDlDqZC1YtUXzM1-11" value="NUM * CONTADOR" style="rounded=1;whiteSpace=wrap;html=1;absoluteArcSize=1;arcSize=14;strokeWidth=2;" vertex="1" parent="1">
          <mxGeometry x="354" y="430" width="120" height="50" as="geometry" />
        </mxCell>
        <mxCell id="07zgNsDlDqZC1YtUXzM1-18" style="edgeStyle=orthogonalEdgeStyle;rounded=0;orthogonalLoop=1;jettySize=auto;html=1;entryX=0.5;entryY=0;entryDx=0;entryDy=0;" edge="1" parent="1" source="07zgNsDlDqZC1YtUXzM1-12" target="07zgNsDlDqZC1YtUXzM1-13">
          <mxGeometry relative="1" as="geometry" />
        </mxCell>
        <mxCell id="07zgNsDlDqZC1YtUXzM1-12" value="NUM * CONTADOR" style="strokeWidth=2;html=1;shape=mxgraph.flowchart.display;whiteSpace=wrap;" vertex="1" parent="1">
          <mxGeometry x="364" y="510" width="100" height="60" as="geometry" />
        </mxCell>
        <mxCell id="07zgNsDlDqZC1YtUXzM1-13" value="CONTADOR++" style="rounded=1;whiteSpace=wrap;html=1;absoluteArcSize=1;arcSize=14;strokeWidth=2;" vertex="1" parent="1">
          <mxGeometry x="354" y="630" width="120" height="45" as="geometry" />
        </mxCell>
        <mxCell id="07zgNsDlDqZC1YtUXzM1-14" style="edgeStyle=orthogonalEdgeStyle;rounded=0;orthogonalLoop=1;jettySize=auto;html=1;entryX=0;entryY=0.5;entryDx=0;entryDy=0;entryPerimeter=0;" edge="1" parent="1" source="07zgNsDlDqZC1YtUXzM1-13" target="07zgNsDlDqZC1YtUXzM1-7">
          <mxGeometry relative="1" as="geometry">
            <Array as="points">
              <mxPoint x="240" y="653" />
              <mxPoint x="240" y="350" />
            </Array>
          </mxGeometry>
        </mxCell>
        <mxCell id="07zgNsDlDqZC1YtUXzM1-17" style="edgeStyle=orthogonalEdgeStyle;rounded=0;orthogonalLoop=1;jettySize=auto;html=1;entryX=0.5;entryY=0;entryDx=0;entryDy=0;entryPerimeter=0;" edge="1" parent="1" source="07zgNsDlDqZC1YtUXzM1-11" target="07zgNsDlDqZC1YtUXzM1-12">
          <mxGeometry relative="1" as="geometry" />
        </mxCell>
        <mxCell id="07zgNsDlDqZC1YtUXzM1-19" style="edgeStyle=orthogonalEdgeStyle;rounded=0;orthogonalLoop=1;jettySize=auto;html=1;entryX=1;entryY=0.5;entryDx=0;entryDy=0;entryPerimeter=0;" edge="1" parent="1" source="07zgNsDlDqZC1YtUXzM1-7" target="07zgNsDlDqZC1YtUXzM1-2">
          <mxGeometry relative="1" as="geometry">
            <Array as="points">
              <mxPoint x="650" y="350" />
              <mxPoint x="650" y="740" />
            </Array>
          </mxGeometry>
        </mxCell>
        <mxCell id="07zgNsDlDqZC1YtUXzM1-20" value="F" style="edgeLabel;html=1;align=center;verticalAlign=middle;resizable=0;points=[];" vertex="1" connectable="0" parent="07zgNsDlDqZC1YtUXzM1-19">
          <mxGeometry x="-0.8271" y="-1" relative="1" as="geometry">
            <mxPoint as="offset" />
          </mxGeometry>
        </mxCell>
      </root>
    </mxGraphModel>
  </diagram>
  <diagram id="klCjS4Avk83EhZiH7Wq1" name="100-1">
    <mxGraphModel dx="1393" dy="763" grid="1" gridSize="10" guides="1" tooltips="1" connect="1" arrows="1" fold="1" page="1" pageScale="1" pageWidth="827" pageHeight="1169" math="0" shadow="0">
      <root>
        <mxCell id="0" />
        <mxCell id="1" parent="0" />
        <mxCell id="CJOObls-l1IONbyUWWJq-1" value="INICIO" style="strokeWidth=2;html=1;shape=mxgraph.flowchart.start_1;whiteSpace=wrap;" vertex="1" parent="1">
          <mxGeometry x="364" y="20" width="100" height="60" as="geometry" />
        </mxCell>
        <mxCell id="CJOObls-l1IONbyUWWJq-2" value="FIM" style="strokeWidth=2;html=1;shape=mxgraph.flowchart.start_1;whiteSpace=wrap;" vertex="1" parent="1">
          <mxGeometry x="364" y="710" width="100" height="60" as="geometry" />
        </mxCell>
        <mxCell id="CJOObls-l1IONbyUWWJq-3" style="edgeStyle=orthogonalEdgeStyle;rounded=0;orthogonalLoop=1;jettySize=auto;html=1;entryX=0.5;entryY=0;entryDx=0;entryDy=0;" edge="1" parent="1" source="CJOObls-l1IONbyUWWJq-4" target="CJOObls-l1IONbyUWWJq-6">
          <mxGeometry relative="1" as="geometry" />
        </mxCell>
        <mxCell id="CJOObls-l1IONbyUWWJq-4" value="NUM" style="html=1;strokeWidth=2;shape=manualInput;whiteSpace=wrap;rounded=1;size=26;arcSize=11;" vertex="1" parent="1">
          <mxGeometry x="364" y="110" width="100" height="60" as="geometry" />
        </mxCell>
        <mxCell id="CJOObls-l1IONbyUWWJq-5" style="edgeStyle=orthogonalEdgeStyle;rounded=0;orthogonalLoop=1;jettySize=auto;html=1;entryX=0.5;entryY=0.167;entryDx=0;entryDy=0;entryPerimeter=0;" edge="1" parent="1" source="CJOObls-l1IONbyUWWJq-1" target="CJOObls-l1IONbyUWWJq-4">
          <mxGeometry relative="1" as="geometry" />
        </mxCell>
        <mxCell id="CJOObls-l1IONbyUWWJq-6" value="CONTADOR = 100" style="rounded=1;whiteSpace=wrap;html=1;absoluteArcSize=1;arcSize=14;strokeWidth=2;" vertex="1" parent="1">
          <mxGeometry x="342" y="220" width="144" height="40" as="geometry" />
        </mxCell>
        <mxCell id="CJOObls-l1IONbyUWWJq-7" style="edgeStyle=orthogonalEdgeStyle;rounded=0;orthogonalLoop=1;jettySize=auto;html=1;entryX=0.5;entryY=0;entryDx=0;entryDy=0;" edge="1" parent="1" source="CJOObls-l1IONbyUWWJq-9" target="CJOObls-l1IONbyUWWJq-11">
          <mxGeometry relative="1" as="geometry" />
        </mxCell>
        <mxCell id="CJOObls-l1IONbyUWWJq-8" value="V" style="edgeLabel;html=1;align=center;verticalAlign=middle;resizable=0;points=[];" vertex="1" connectable="0" parent="CJOObls-l1IONbyUWWJq-7">
          <mxGeometry x="-0.2" y="-3" relative="1" as="geometry">
            <mxPoint as="offset" />
          </mxGeometry>
        </mxCell>
        <mxCell id="CJOObls-l1IONbyUWWJq-9" value="CONTADOR &amp;gt; 0" style="strokeWidth=2;html=1;shape=mxgraph.flowchart.decision;whiteSpace=wrap;" vertex="1" parent="1">
          <mxGeometry x="354" y="310" width="120" height="80" as="geometry" />
        </mxCell>
        <mxCell id="CJOObls-l1IONbyUWWJq-10" style="edgeStyle=orthogonalEdgeStyle;rounded=0;orthogonalLoop=1;jettySize=auto;html=1;entryX=0.5;entryY=0;entryDx=0;entryDy=0;entryPerimeter=0;" edge="1" parent="1" source="CJOObls-l1IONbyUWWJq-6" target="CJOObls-l1IONbyUWWJq-9">
          <mxGeometry relative="1" as="geometry" />
        </mxCell>
        <mxCell id="CJOObls-l1IONbyUWWJq-11" value="NUM * CONTADOR" style="rounded=1;whiteSpace=wrap;html=1;absoluteArcSize=1;arcSize=14;strokeWidth=2;" vertex="1" parent="1">
          <mxGeometry x="354" y="430" width="120" height="50" as="geometry" />
        </mxCell>
        <mxCell id="CJOObls-l1IONbyUWWJq-12" style="edgeStyle=orthogonalEdgeStyle;rounded=0;orthogonalLoop=1;jettySize=auto;html=1;entryX=0.5;entryY=0;entryDx=0;entryDy=0;" edge="1" parent="1" source="CJOObls-l1IONbyUWWJq-13" target="CJOObls-l1IONbyUWWJq-14">
          <mxGeometry relative="1" as="geometry" />
        </mxCell>
        <mxCell id="CJOObls-l1IONbyUWWJq-13" value="NUM * CONTADOR" style="strokeWidth=2;html=1;shape=mxgraph.flowchart.display;whiteSpace=wrap;" vertex="1" parent="1">
          <mxGeometry x="364" y="510" width="100" height="60" as="geometry" />
        </mxCell>
        <mxCell id="CJOObls-l1IONbyUWWJq-14" value="CONTADOR--" style="rounded=1;whiteSpace=wrap;html=1;absoluteArcSize=1;arcSize=14;strokeWidth=2;" vertex="1" parent="1">
          <mxGeometry x="354" y="630" width="120" height="45" as="geometry" />
        </mxCell>
        <mxCell id="CJOObls-l1IONbyUWWJq-15" style="edgeStyle=orthogonalEdgeStyle;rounded=0;orthogonalLoop=1;jettySize=auto;html=1;entryX=0;entryY=0.5;entryDx=0;entryDy=0;entryPerimeter=0;" edge="1" parent="1" source="CJOObls-l1IONbyUWWJq-14" target="CJOObls-l1IONbyUWWJq-9">
          <mxGeometry relative="1" as="geometry">
            <Array as="points">
              <mxPoint x="240" y="653" />
              <mxPoint x="240" y="350" />
            </Array>
          </mxGeometry>
        </mxCell>
        <mxCell id="CJOObls-l1IONbyUWWJq-16" style="edgeStyle=orthogonalEdgeStyle;rounded=0;orthogonalLoop=1;jettySize=auto;html=1;entryX=0.5;entryY=0;entryDx=0;entryDy=0;entryPerimeter=0;" edge="1" parent="1" source="CJOObls-l1IONbyUWWJq-11" target="CJOObls-l1IONbyUWWJq-13">
          <mxGeometry relative="1" as="geometry" />
        </mxCell>
        <mxCell id="CJOObls-l1IONbyUWWJq-17" style="edgeStyle=orthogonalEdgeStyle;rounded=0;orthogonalLoop=1;jettySize=auto;html=1;entryX=1;entryY=0.5;entryDx=0;entryDy=0;entryPerimeter=0;" edge="1" parent="1" source="CJOObls-l1IONbyUWWJq-9" target="CJOObls-l1IONbyUWWJq-2">
          <mxGeometry relative="1" as="geometry">
            <Array as="points">
              <mxPoint x="650" y="350" />
              <mxPoint x="650" y="740" />
            </Array>
          </mxGeometry>
        </mxCell>
        <mxCell id="CJOObls-l1IONbyUWWJq-18" value="F" style="edgeLabel;html=1;align=center;verticalAlign=middle;resizable=0;points=[];" vertex="1" connectable="0" parent="CJOObls-l1IONbyUWWJq-17">
          <mxGeometry x="-0.8271" y="-1" relative="1" as="geometry">
            <mxPoint as="offset" />
          </mxGeometry>
        </mxCell>
      </root>
    </mxGraphModel>
  </diagram>
  <diagram id="47uX_-MHaCV4pOkb-HkO" name="1-100-2">
    <mxGraphModel dx="1393" dy="763" grid="1" gridSize="10" guides="1" tooltips="1" connect="1" arrows="1" fold="1" page="1" pageScale="1" pageWidth="827" pageHeight="1169" math="0" shadow="0">
      <root>
        <mxCell id="0" />
        <mxCell id="1" parent="0" />
        <mxCell id="BjTsD1iflALJWSWy11A1-1" value="INICIO" style="strokeWidth=2;html=1;shape=mxgraph.flowchart.start_1;whiteSpace=wrap;" vertex="1" parent="1">
          <mxGeometry x="364" y="20" width="100" height="60" as="geometry" />
        </mxCell>
        <mxCell id="BjTsD1iflALJWSWy11A1-2" value="FIM" style="strokeWidth=2;html=1;shape=mxgraph.flowchart.start_1;whiteSpace=wrap;" vertex="1" parent="1">
          <mxGeometry x="364" y="710" width="100" height="60" as="geometry" />
        </mxCell>
        <mxCell id="BjTsD1iflALJWSWy11A1-3" style="edgeStyle=orthogonalEdgeStyle;rounded=0;orthogonalLoop=1;jettySize=auto;html=1;entryX=0.5;entryY=0;entryDx=0;entryDy=0;" edge="1" parent="1" source="BjTsD1iflALJWSWy11A1-4" target="BjTsD1iflALJWSWy11A1-6">
          <mxGeometry relative="1" as="geometry" />
        </mxCell>
        <mxCell id="BjTsD1iflALJWSWy11A1-4" value="NUM" style="html=1;strokeWidth=2;shape=manualInput;whiteSpace=wrap;rounded=1;size=26;arcSize=11;" vertex="1" parent="1">
          <mxGeometry x="364" y="110" width="100" height="60" as="geometry" />
        </mxCell>
        <mxCell id="BjTsD1iflALJWSWy11A1-5" style="edgeStyle=orthogonalEdgeStyle;rounded=0;orthogonalLoop=1;jettySize=auto;html=1;entryX=0.5;entryY=0.167;entryDx=0;entryDy=0;entryPerimeter=0;" edge="1" parent="1" source="BjTsD1iflALJWSWy11A1-1" target="BjTsD1iflALJWSWy11A1-4">
          <mxGeometry relative="1" as="geometry" />
        </mxCell>
        <mxCell id="BjTsD1iflALJWSWy11A1-6" value="CONTADOR = 1" style="rounded=1;whiteSpace=wrap;html=1;absoluteArcSize=1;arcSize=14;strokeWidth=2;" vertex="1" parent="1">
          <mxGeometry x="342" y="220" width="144" height="40" as="geometry" />
        </mxCell>
        <mxCell id="BjTsD1iflALJWSWy11A1-7" style="edgeStyle=orthogonalEdgeStyle;rounded=0;orthogonalLoop=1;jettySize=auto;html=1;entryX=0.5;entryY=0;entryDx=0;entryDy=0;" edge="1" parent="1" source="BjTsD1iflALJWSWy11A1-9" target="BjTsD1iflALJWSWy11A1-11">
          <mxGeometry relative="1" as="geometry" />
        </mxCell>
        <mxCell id="BjTsD1iflALJWSWy11A1-8" value="V" style="edgeLabel;html=1;align=center;verticalAlign=middle;resizable=0;points=[];" vertex="1" connectable="0" parent="BjTsD1iflALJWSWy11A1-7">
          <mxGeometry x="-0.2" y="-3" relative="1" as="geometry">
            <mxPoint as="offset" />
          </mxGeometry>
        </mxCell>
        <mxCell id="BjTsD1iflALJWSWy11A1-9" value="CONTADOR &amp;lt;= 100" style="strokeWidth=2;html=1;shape=mxgraph.flowchart.decision;whiteSpace=wrap;" vertex="1" parent="1">
          <mxGeometry x="354" y="310" width="120" height="80" as="geometry" />
        </mxCell>
        <mxCell id="BjTsD1iflALJWSWy11A1-10" style="edgeStyle=orthogonalEdgeStyle;rounded=0;orthogonalLoop=1;jettySize=auto;html=1;entryX=0.5;entryY=0;entryDx=0;entryDy=0;entryPerimeter=0;" edge="1" parent="1" source="BjTsD1iflALJWSWy11A1-6" target="BjTsD1iflALJWSWy11A1-9">
          <mxGeometry relative="1" as="geometry" />
        </mxCell>
        <mxCell id="BjTsD1iflALJWSWy11A1-11" value="NUM * CONTADOR" style="rounded=1;whiteSpace=wrap;html=1;absoluteArcSize=1;arcSize=14;strokeWidth=2;" vertex="1" parent="1">
          <mxGeometry x="354" y="430" width="120" height="50" as="geometry" />
        </mxCell>
        <mxCell id="BjTsD1iflALJWSWy11A1-12" style="edgeStyle=orthogonalEdgeStyle;rounded=0;orthogonalLoop=1;jettySize=auto;html=1;entryX=0.5;entryY=0;entryDx=0;entryDy=0;" edge="1" parent="1" source="BjTsD1iflALJWSWy11A1-13" target="BjTsD1iflALJWSWy11A1-14">
          <mxGeometry relative="1" as="geometry" />
        </mxCell>
        <mxCell id="BjTsD1iflALJWSWy11A1-13" value="NUM * CONTADOR" style="strokeWidth=2;html=1;shape=mxgraph.flowchart.display;whiteSpace=wrap;" vertex="1" parent="1">
          <mxGeometry x="364" y="510" width="100" height="60" as="geometry" />
        </mxCell>
        <mxCell id="BjTsD1iflALJWSWy11A1-14" value="CONTADOR += 2" style="rounded=1;whiteSpace=wrap;html=1;absoluteArcSize=1;arcSize=14;strokeWidth=2;" vertex="1" parent="1">
          <mxGeometry x="354" y="630" width="120" height="45" as="geometry" />
        </mxCell>
        <mxCell id="BjTsD1iflALJWSWy11A1-15" style="edgeStyle=orthogonalEdgeStyle;rounded=0;orthogonalLoop=1;jettySize=auto;html=1;entryX=0;entryY=0.5;entryDx=0;entryDy=0;entryPerimeter=0;" edge="1" parent="1" source="BjTsD1iflALJWSWy11A1-14" target="BjTsD1iflALJWSWy11A1-9">
          <mxGeometry relative="1" as="geometry">
            <Array as="points">
              <mxPoint x="240" y="653" />
              <mxPoint x="240" y="350" />
            </Array>
          </mxGeometry>
        </mxCell>
        <mxCell id="BjTsD1iflALJWSWy11A1-16" style="edgeStyle=orthogonalEdgeStyle;rounded=0;orthogonalLoop=1;jettySize=auto;html=1;entryX=0.5;entryY=0;entryDx=0;entryDy=0;entryPerimeter=0;" edge="1" parent="1" source="BjTsD1iflALJWSWy11A1-11" target="BjTsD1iflALJWSWy11A1-13">
          <mxGeometry relative="1" as="geometry" />
        </mxCell>
        <mxCell id="BjTsD1iflALJWSWy11A1-17" style="edgeStyle=orthogonalEdgeStyle;rounded=0;orthogonalLoop=1;jettySize=auto;html=1;entryX=1;entryY=0.5;entryDx=0;entryDy=0;entryPerimeter=0;" edge="1" parent="1" source="BjTsD1iflALJWSWy11A1-9" target="BjTsD1iflALJWSWy11A1-2">
          <mxGeometry relative="1" as="geometry">
            <Array as="points">
              <mxPoint x="650" y="350" />
              <mxPoint x="650" y="740" />
            </Array>
          </mxGeometry>
        </mxCell>
        <mxCell id="BjTsD1iflALJWSWy11A1-18" value="F" style="edgeLabel;html=1;align=center;verticalAlign=middle;resizable=0;points=[];" vertex="1" connectable="0" parent="BjTsD1iflALJWSWy11A1-17">
          <mxGeometry x="-0.8271" y="-1" relative="1" as="geometry">
            <mxPoint as="offset" />
          </mxGeometry>
        </mxCell>
      </root>
    </mxGraphModel>
  </diagram>
</mxfile>
